G04 Layer: BottomSilkLayer*
G04 EasyEDA v6.4.19.4, 2021-05-22T17:12:30+02:00*
G04 60ca6d144bf64f37953a992c9f1d910e,8dc9eacff13444d6b60fd3cb587e6cd5,10*
G04 Gerber Generator version 0.2*
G04 Scale: 100 percent, Rotated: No, Reflected: No *
G04 Dimensions in inches *
G04 leading zeros omitted , absolute positions ,3 integer and 6 decimal *
%FSLAX36Y36*%
%MOIN*%

%ADD10C,0.0001*%

%LPD*%
G36*
X722780Y-647720D02*
G01*
X535260Y-649120D01*
X529880Y-658720D01*
X529340Y-660600D01*
X528840Y-663580D01*
X528360Y-667660D01*
X527460Y-678840D01*
X526680Y-693680D01*
X525980Y-711760D01*
X525400Y-732600D01*
X524920Y-755819D01*
X524480Y-784180D01*
X524180Y-814360D01*
X524000Y-849240D01*
X524000Y-902420D01*
X524200Y-937200D01*
X524520Y-967200D01*
X524920Y-992320D01*
X525400Y-1015520D01*
X525980Y-1036380D01*
X526680Y-1054460D01*
X527460Y-1069300D01*
X528360Y-1080460D01*
X528840Y-1084540D01*
X529340Y-1087540D01*
X529600Y-1088620D01*
X529880Y-1089400D01*
X535260Y-1099000D01*
X722780Y-1100420D01*
X722780Y-1014840D01*
X706200Y-995620D01*
X704700Y-994060D01*
X703319Y-992800D01*
X702039Y-991840D01*
X700800Y-991200D01*
X699539Y-990860D01*
X698220Y-990800D01*
X696800Y-991020D01*
X695220Y-991520D01*
X693420Y-992280D01*
X688980Y-994580D01*
X678960Y-1000200D01*
X675720Y-1002200D01*
X673340Y-1003920D01*
X671740Y-1005500D01*
X670800Y-1007020D01*
X670460Y-1008600D01*
X670580Y-1010360D01*
X671720Y-1014419D01*
X672640Y-1018360D01*
X673220Y-1022200D01*
X673480Y-1025939D01*
X673400Y-1029580D01*
X673040Y-1033100D01*
X672380Y-1036500D01*
X671440Y-1039780D01*
X670260Y-1042940D01*
X668820Y-1045960D01*
X667140Y-1048820D01*
X665240Y-1051560D01*
X663139Y-1054140D01*
X660840Y-1056540D01*
X658379Y-1058800D01*
X655740Y-1060880D01*
X652940Y-1062780D01*
X650020Y-1064500D01*
X646979Y-1066040D01*
X643820Y-1067380D01*
X640560Y-1068520D01*
X637220Y-1069460D01*
X633820Y-1070180D01*
X630360Y-1070680D01*
X626860Y-1070960D01*
X623340Y-1071020D01*
X619800Y-1070840D01*
X616260Y-1070420D01*
X612720Y-1069740D01*
X609240Y-1068820D01*
X605780Y-1067640D01*
X602380Y-1066200D01*
X599040Y-1064480D01*
X595800Y-1062500D01*
X592640Y-1060220D01*
X589600Y-1057660D01*
X586700Y-1054800D01*
X585280Y-1053280D01*
X582580Y-1049960D01*
X580280Y-1046640D01*
X578380Y-1043280D01*
X576880Y-1039900D01*
X576280Y-1038220D01*
X575360Y-1034840D01*
X574780Y-1031480D01*
X574580Y-1028139D01*
X574680Y-1024840D01*
X575120Y-1021600D01*
X575860Y-1018400D01*
X576880Y-1015280D01*
X578180Y-1012240D01*
X579740Y-1009300D01*
X581540Y-1006460D01*
X583580Y-1003720D01*
X585820Y-1001120D01*
X588280Y-998660D01*
X590900Y-996340D01*
X593720Y-994180D01*
X596680Y-992200D01*
X599780Y-990400D01*
X603020Y-988800D01*
X606360Y-987380D01*
X609820Y-986200D01*
X613340Y-985240D01*
X616940Y-984520D01*
X620600Y-984040D01*
X624280Y-983840D01*
X628000Y-983900D01*
X631740Y-984240D01*
X635460Y-984880D01*
X639160Y-985840D01*
X642840Y-987099D01*
X646460Y-988680D01*
X650040Y-990620D01*
X653520Y-992900D01*
X665240Y-1001979D01*
X695460Y-984120D01*
X695520Y-983640D01*
X695200Y-982600D01*
X693620Y-979040D01*
X690960Y-973980D01*
X684040Y-961900D01*
X681880Y-957800D01*
X679840Y-953660D01*
X677920Y-949479D01*
X675240Y-943120D01*
X673620Y-938820D01*
X672099Y-934500D01*
X670680Y-930140D01*
X668780Y-923540D01*
X667159Y-916880D01*
X666200Y-912400D01*
X665360Y-907900D01*
X664640Y-903379D01*
X664020Y-898840D01*
X663319Y-892000D01*
X662780Y-882840D01*
X662680Y-878259D01*
X662680Y-873660D01*
X662800Y-869040D01*
X663020Y-864440D01*
X663580Y-857540D01*
X664380Y-850639D01*
X665840Y-841480D01*
X666740Y-836900D01*
X667740Y-832360D01*
X668860Y-827820D01*
X670080Y-823300D01*
X671400Y-818800D01*
X672840Y-814320D01*
X675220Y-807660D01*
X676919Y-803259D01*
X678740Y-798880D01*
X682720Y-790220D01*
X687099Y-781720D01*
X689460Y-777540D01*
X691919Y-773400D01*
X694500Y-769300D01*
X697180Y-765260D01*
X699960Y-761260D01*
X705840Y-753439D01*
X722780Y-732960D01*
G37*
G36*
X1064800Y-647800D02*
G01*
X1064800Y-731320D01*
X1079880Y-748360D01*
X1086000Y-755819D01*
X1090300Y-761560D01*
X1093040Y-765460D01*
X1095660Y-769400D01*
X1098180Y-773400D01*
X1100600Y-777460D01*
X1102900Y-781560D01*
X1105100Y-785699D01*
X1107200Y-789880D01*
X1109200Y-794100D01*
X1111080Y-798360D01*
X1114520Y-806979D01*
X1116080Y-811320D01*
X1118220Y-817920D01*
X1120120Y-824560D01*
X1121780Y-831260D01*
X1123200Y-837980D01*
X1124380Y-844760D01*
X1125300Y-851560D01*
X1125800Y-856100D01*
X1126180Y-860639D01*
X1126640Y-869740D01*
X1126700Y-874300D01*
X1126580Y-881120D01*
X1126080Y-890200D01*
X1125660Y-894720D01*
X1124820Y-901500D01*
X1123360Y-910460D01*
X1122460Y-914900D01*
X1120340Y-923740D01*
X1119120Y-928120D01*
X1117792Y-932420D01*
X1166920Y-932420D01*
X1166920Y-930500D01*
X1167140Y-928600D01*
X1167540Y-926720D01*
X1168180Y-924880D01*
X1169020Y-923100D01*
X1170100Y-921380D01*
X1171400Y-919760D01*
X1172940Y-918240D01*
X1174720Y-916860D01*
X1176680Y-915580D01*
X1178680Y-914500D01*
X1180700Y-913600D01*
X1182700Y-912900D01*
X1184720Y-912360D01*
X1186740Y-912000D01*
X1188720Y-911820D01*
X1190660Y-911820D01*
X1192580Y-911979D01*
X1194440Y-912320D01*
X1196260Y-912820D01*
X1198000Y-913500D01*
X1199660Y-914320D01*
X1201220Y-915320D01*
X1202700Y-916460D01*
X1204080Y-917780D01*
X1205340Y-919240D01*
X1206460Y-920860D01*
X1207460Y-922620D01*
X1208320Y-924539D01*
X1209060Y-926700D01*
X1209580Y-928820D01*
X1209880Y-930879D01*
X1209960Y-932900D01*
X1209840Y-934840D01*
X1209520Y-936720D01*
X1209000Y-938520D01*
X1208280Y-940220D01*
X1207400Y-941840D01*
X1206320Y-943360D01*
X1205080Y-944760D01*
X1203660Y-946040D01*
X1202100Y-947200D01*
X1200360Y-948240D01*
X1198480Y-949140D01*
X1196460Y-949880D01*
X1194320Y-950480D01*
X1192020Y-950900D01*
X1189620Y-951180D01*
X1187080Y-951260D01*
X1184760Y-951140D01*
X1182540Y-950800D01*
X1180460Y-950220D01*
X1178500Y-949460D01*
X1176660Y-948500D01*
X1174980Y-947380D01*
X1173420Y-946120D01*
X1172020Y-944700D01*
X1170780Y-943180D01*
X1169700Y-941540D01*
X1168780Y-939840D01*
X1168040Y-938040D01*
X1167480Y-936200D01*
X1167100Y-934320D01*
X1166920Y-932420D01*
X1117780Y-932460D01*
X1115600Y-938940D01*
X1114000Y-943199D01*
X1112300Y-947420D01*
X1110480Y-951620D01*
X1107580Y-957820D01*
X1105500Y-961900D01*
X1103320Y-965939D01*
X1101020Y-969940D01*
X1096120Y-977760D01*
X1093500Y-981580D01*
X1090780Y-985360D01*
X1087960Y-989060D01*
X1085020Y-992700D01*
X1081980Y-996300D01*
X1064800Y-1015080D01*
X1064800Y-1100340D01*
X1163820Y-1100340D01*
X1163880Y-1083560D01*
X1164040Y-1079360D01*
X1164280Y-1076200D01*
X1164560Y-1074560D01*
X1164020Y-1073660D01*
X1162000Y-1072560D01*
X1158820Y-1071400D01*
X1152600Y-1069800D01*
X1148380Y-1068520D01*
X1144420Y-1067020D01*
X1140740Y-1065300D01*
X1137340Y-1063400D01*
X1134200Y-1061300D01*
X1131320Y-1059020D01*
X1128700Y-1056580D01*
X1126340Y-1054020D01*
X1124240Y-1051320D01*
X1122400Y-1048500D01*
X1120820Y-1045580D01*
X1119480Y-1042580D01*
X1118400Y-1039520D01*
X1117580Y-1036400D01*
X1117000Y-1033240D01*
X1116660Y-1030060D01*
X1116560Y-1026860D01*
X1116720Y-1023660D01*
X1117120Y-1020500D01*
X1117740Y-1017360D01*
X1118620Y-1014260D01*
X1119720Y-1011240D01*
X1121060Y-1008280D01*
X1122620Y-1005420D01*
X1124420Y-1002680D01*
X1126460Y-1000040D01*
X1128700Y-997540D01*
X1131180Y-995200D01*
X1133880Y-993020D01*
X1136820Y-991020D01*
X1139960Y-989220D01*
X1143320Y-987640D01*
X1146880Y-986260D01*
X1150680Y-985140D01*
X1154680Y-984260D01*
X1158880Y-983640D01*
X1163300Y-983319D01*
X1167900Y-983300D01*
X1172360Y-983600D01*
X1176600Y-984240D01*
X1180640Y-985180D01*
X1184440Y-986400D01*
X1188040Y-987900D01*
X1191400Y-989640D01*
X1194560Y-991620D01*
X1197460Y-993820D01*
X1200140Y-996220D01*
X1202560Y-998800D01*
X1204760Y-1001540D01*
X1206720Y-1004419D01*
X1208400Y-1007440D01*
X1209860Y-1010580D01*
X1211040Y-1013800D01*
X1211980Y-1017099D01*
X1212640Y-1020460D01*
X1213040Y-1023840D01*
X1213180Y-1027280D01*
X1213040Y-1030699D01*
X1212620Y-1034120D01*
X1211920Y-1037500D01*
X1210920Y-1040840D01*
X1209660Y-1044120D01*
X1208100Y-1047300D01*
X1206240Y-1050400D01*
X1204080Y-1053380D01*
X1202900Y-1054820D01*
X1200280Y-1057580D01*
X1197360Y-1060180D01*
X1194140Y-1062620D01*
X1190600Y-1064840D01*
X1186740Y-1066860D01*
X1182560Y-1068640D01*
X1177240Y-1070760D01*
X1175260Y-1071680D01*
X1173660Y-1072600D01*
X1172400Y-1073560D01*
X1171460Y-1074640D01*
X1170780Y-1075900D01*
X1170320Y-1077400D01*
X1170040Y-1079200D01*
X1169880Y-1081360D01*
X1169820Y-1083940D01*
X1169820Y-1100480D01*
X1261320Y-1099000D01*
X1266740Y-1089400D01*
X1267140Y-1088100D01*
X1267640Y-1085360D01*
X1268120Y-1081500D01*
X1268580Y-1076580D01*
X1269400Y-1063800D01*
X1270100Y-1047460D01*
X1270680Y-1028020D01*
X1271160Y-1005920D01*
X1271520Y-981600D01*
X1271800Y-952159D01*
X1271940Y-924620D01*
X1271940Y-871140D01*
X1271620Y-824740D01*
X1271260Y-793640D01*
X1270840Y-767320D01*
X1270320Y-742680D01*
X1269700Y-720200D01*
X1269000Y-700300D01*
X1268200Y-683439D01*
X1267300Y-670060D01*
X1266840Y-664820D01*
X1266340Y-660600D01*
X1265560Y-656360D01*
X1265280Y-655540D01*
X1265000Y-655000D01*
X1259680Y-647800D01*
G37*
G36*
X728780Y-655780D02*
G01*
X728780Y-727660D01*
X750840Y-711860D01*
X756640Y-707940D01*
X764520Y-702980D01*
X772580Y-698360D01*
X780800Y-694060D01*
X789180Y-690080D01*
X797720Y-686420D01*
X806360Y-683100D01*
X815140Y-680100D01*
X819560Y-678720D01*
X828480Y-676220D01*
X832980Y-675080D01*
X839760Y-673540D01*
X844320Y-672600D01*
X851160Y-671360D01*
X858060Y-670300D01*
X864960Y-669440D01*
X869580Y-668960D01*
X876540Y-668379D01*
X883500Y-668000D01*
X890480Y-667800D01*
X897460Y-667780D01*
X906760Y-668040D01*
X916060Y-668640D01*
X925320Y-669560D01*
X934560Y-670800D01*
X943760Y-672360D01*
X950600Y-673760D01*
X959700Y-675900D01*
X964200Y-677099D01*
X970939Y-679040D01*
X979820Y-681919D01*
X986420Y-684300D01*
X995120Y-687740D01*
X1003680Y-691520D01*
X1012120Y-695639D01*
X1018340Y-698920D01*
X1026520Y-703600D01*
X1034520Y-708620D01*
X1043840Y-714880D01*
X1053140Y-720960D01*
X1056620Y-723120D01*
X1059040Y-724500D01*
X1060200Y-725000D01*
X1060360Y-724820D01*
X1060680Y-723439D01*
X1060960Y-720800D01*
X1061440Y-712360D01*
X1061740Y-700639D01*
X1061800Y-693920D01*
X1061800Y-655780D01*
G37*
G36*
X892200Y-670740D02*
G01*
X883199Y-670960D01*
X876480Y-671340D01*
X869820Y-671919D01*
X861000Y-672980D01*
X856620Y-673640D01*
X850100Y-674760D01*
X841480Y-676540D01*
X837220Y-677540D01*
X828780Y-679780D01*
X822520Y-681660D01*
X814280Y-684400D01*
X806200Y-687440D01*
X798240Y-690759D01*
X794320Y-692500D01*
X788520Y-695260D01*
X780920Y-699180D01*
X777180Y-701220D01*
X771660Y-704419D01*
X766240Y-707740D01*
X759180Y-712380D01*
X754000Y-716020D01*
X748940Y-719780D01*
X744000Y-723660D01*
X737600Y-729040D01*
X731420Y-734599D01*
X725480Y-740380D01*
X722600Y-743340D01*
X718379Y-747860D01*
X712980Y-754060D01*
X707820Y-760440D01*
X702940Y-766979D01*
X699460Y-771979D01*
X696140Y-777080D01*
X691960Y-784020D01*
X688080Y-791080D01*
X685360Y-796480D01*
X682820Y-801940D01*
X679700Y-809340D01*
X676900Y-816860D01*
X674440Y-824479D01*
X672320Y-832200D01*
X670560Y-840020D01*
X669140Y-847940D01*
X668560Y-851919D01*
X667880Y-857940D01*
X667540Y-861960D01*
X667200Y-868040D01*
X667099Y-876200D01*
X667380Y-884419D01*
X668080Y-892680D01*
X669180Y-900980D01*
X669880Y-905140D01*
X671620Y-913500D01*
X673700Y-921720D01*
X675480Y-927740D01*
X677440Y-933660D01*
X678820Y-937540D01*
X681060Y-943259D01*
X683439Y-948880D01*
X685120Y-952540D01*
X687780Y-957960D01*
X689640Y-961520D01*
X692540Y-966740D01*
X694560Y-970160D01*
X698800Y-976840D01*
X701000Y-980100D01*
X705600Y-986460D01*
X708000Y-989560D01*
X711700Y-994120D01*
X716820Y-1000000D01*
X722159Y-1005680D01*
X724900Y-1008420D01*
X729120Y-1012460D01*
X734920Y-1017660D01*
X742440Y-1023840D01*
X745520Y-1026220D01*
X750220Y-1029680D01*
X755040Y-1033020D01*
X759920Y-1036220D01*
X764900Y-1039320D01*
X768280Y-1041320D01*
X773400Y-1044200D01*
X778600Y-1046960D01*
X787420Y-1051260D01*
X794620Y-1054460D01*
X800080Y-1056720D01*
X807480Y-1059520D01*
X814960Y-1062080D01*
X822540Y-1064420D01*
X830200Y-1066540D01*
X834060Y-1067500D01*
X841820Y-1069260D01*
X849640Y-1070800D01*
X857520Y-1072100D01*
X863460Y-1072920D01*
X871400Y-1073800D01*
X879380Y-1074440D01*
X887380Y-1074840D01*
X893379Y-1075000D01*
X903379Y-1074940D01*
X911380Y-1074620D01*
X917380Y-1074220D01*
X923360Y-1073700D01*
X933280Y-1072500D01*
X941180Y-1071260D01*
X945120Y-1070560D01*
X954900Y-1068520D01*
X964580Y-1066080D01*
X970340Y-1064440D01*
X976040Y-1062660D01*
X983580Y-1060060D01*
X991040Y-1057200D01*
X996560Y-1054900D01*
X1003820Y-1051600D01*
X1009180Y-1048960D01*
X1014479Y-1046160D01*
X1019720Y-1043240D01*
X1024880Y-1040160D01*
X1029940Y-1036940D01*
X1036580Y-1032420D01*
X1043060Y-1027620D01*
X1046240Y-1025140D01*
X1050920Y-1021280D01*
X1055500Y-1017280D01*
X1061460Y-1011700D01*
X1067220Y-1005860D01*
X1072780Y-999760D01*
X1076820Y-995000D01*
X1080740Y-990100D01*
X1085760Y-983319D01*
X1088200Y-979840D01*
X1091720Y-974479D01*
X1096220Y-967099D01*
X1098500Y-963100D01*
X1102720Y-955040D01*
X1104680Y-951000D01*
X1107400Y-944920D01*
X1109100Y-940860D01*
X1112160Y-932700D01*
X1114820Y-924500D01*
X1117080Y-916300D01*
X1118060Y-912200D01*
X1119700Y-903980D01*
X1120960Y-895780D01*
X1121660Y-889640D01*
X1122000Y-885540D01*
X1122320Y-879419D01*
X1122420Y-871260D01*
X1122340Y-867200D01*
X1122160Y-863160D01*
X1121700Y-857120D01*
X1121300Y-853100D01*
X1120500Y-847099D01*
X1119860Y-843120D01*
X1118740Y-837200D01*
X1117400Y-831300D01*
X1115320Y-823520D01*
X1114160Y-819659D01*
X1111560Y-812020D01*
X1108620Y-804479D01*
X1106180Y-798900D01*
X1102660Y-791580D01*
X1098800Y-784360D01*
X1094620Y-777300D01*
X1090120Y-770360D01*
X1087760Y-766960D01*
X1084060Y-761919D01*
X1080200Y-756979D01*
X1076160Y-752140D01*
X1070500Y-745819D01*
X1064540Y-739700D01*
X1059900Y-735240D01*
X1055080Y-730900D01*
X1051780Y-728060D01*
X1046700Y-723900D01*
X1039680Y-718560D01*
X1036060Y-715960D01*
X1030500Y-712180D01*
X1022860Y-707360D01*
X1018960Y-705040D01*
X1010920Y-700580D01*
X1002640Y-696400D01*
X994100Y-692460D01*
X987520Y-689700D01*
X980819Y-687099D01*
X973960Y-684659D01*
X969340Y-683120D01*
X959880Y-680280D01*
X955080Y-678980D01*
X947740Y-677159D01*
X937980Y-675060D01*
X928760Y-673460D01*
X919560Y-672220D01*
X910400Y-671380D01*
X901280Y-670879D01*
G37*
G36*
X1188700Y-916860D02*
G01*
X1186440Y-917039D01*
X1184180Y-917500D01*
X1181960Y-918220D01*
X1179820Y-919200D01*
X1177760Y-920460D01*
X1175820Y-921979D01*
X1174340Y-923439D01*
X1173140Y-924940D01*
X1172200Y-926500D01*
X1171500Y-928100D01*
X1171040Y-929700D01*
X1170800Y-931320D01*
X1170800Y-932920D01*
X1171000Y-934500D01*
X1171420Y-936020D01*
X1172040Y-937500D01*
X1172860Y-938900D01*
X1173860Y-940220D01*
X1175060Y-941440D01*
X1176400Y-942560D01*
X1177940Y-943520D01*
X1179620Y-944360D01*
X1181440Y-945020D01*
X1183420Y-945520D01*
X1185540Y-945840D01*
X1187780Y-945939D01*
X1190100Y-945840D01*
X1192320Y-945540D01*
X1194380Y-945040D01*
X1196300Y-944400D01*
X1198040Y-943580D01*
X1199640Y-942620D01*
X1201080Y-941520D01*
X1202320Y-940320D01*
X1203380Y-939000D01*
X1204260Y-937600D01*
X1204940Y-936120D01*
X1205400Y-934580D01*
X1205660Y-932980D01*
X1205680Y-931340D01*
X1205500Y-929680D01*
X1205060Y-928020D01*
X1204380Y-926360D01*
X1203460Y-924720D01*
X1202300Y-923100D01*
X1200840Y-921520D01*
X1199140Y-920060D01*
X1197260Y-918880D01*
X1195240Y-917960D01*
X1193120Y-917320D01*
X1190940Y-916960D01*
G37*
G36*
X624820Y-988280D02*
G01*
X620940Y-988480D01*
X619020Y-988680D01*
X615220Y-989340D01*
X611520Y-990280D01*
X607920Y-991500D01*
X604440Y-993000D01*
X601100Y-994720D01*
X597940Y-996700D01*
X594960Y-998880D01*
X592180Y-1001260D01*
X589620Y-1003840D01*
X587320Y-1006580D01*
X585260Y-1009479D01*
X583520Y-1012540D01*
X582060Y-1015720D01*
X580940Y-1019000D01*
X580160Y-1022400D01*
X579760Y-1025879D01*
X579700Y-1027640D01*
X579880Y-1031220D01*
X580120Y-1033020D01*
X580940Y-1036660D01*
X582200Y-1040340D01*
X584000Y-1044120D01*
X585060Y-1046000D01*
X587420Y-1049500D01*
X588720Y-1051140D01*
X591520Y-1054160D01*
X593000Y-1055540D01*
X596160Y-1058080D01*
X599520Y-1060280D01*
X603060Y-1062180D01*
X604900Y-1063000D01*
X608660Y-1064380D01*
X612540Y-1065460D01*
X616520Y-1066200D01*
X620540Y-1066620D01*
X624580Y-1066700D01*
X628640Y-1066460D01*
X632680Y-1065880D01*
X634680Y-1065480D01*
X638620Y-1064400D01*
X642480Y-1063000D01*
X646200Y-1061280D01*
X649800Y-1059220D01*
X653199Y-1056820D01*
X656420Y-1054100D01*
X659400Y-1051040D01*
X662120Y-1047640D01*
X663379Y-1045819D01*
X664560Y-1043900D01*
X665639Y-1041880D01*
X666540Y-1039780D01*
X667280Y-1037640D01*
X667860Y-1035460D01*
X668259Y-1033240D01*
X668520Y-1030980D01*
X668600Y-1028720D01*
X668520Y-1026420D01*
X668300Y-1024140D01*
X667920Y-1021860D01*
X667380Y-1019580D01*
X666700Y-1017320D01*
X665879Y-1015100D01*
X664920Y-1012900D01*
X663820Y-1010740D01*
X662580Y-1008640D01*
X661200Y-1006600D01*
X659700Y-1004620D01*
X658080Y-1002720D01*
X656320Y-1000900D01*
X654440Y-999160D01*
X652440Y-997520D01*
X650320Y-996000D01*
X648080Y-994580D01*
X644300Y-992560D01*
X640460Y-990960D01*
X636560Y-989760D01*
X634620Y-989280D01*
X632660Y-988900D01*
X628720Y-988420D01*
G37*
G36*
X1166220Y-988720D02*
G01*
X1164020Y-988780D01*
X1159600Y-989220D01*
X1157400Y-989560D01*
X1153060Y-990540D01*
X1148820Y-991860D01*
X1144720Y-993520D01*
X1140800Y-995500D01*
X1137120Y-997760D01*
X1133700Y-1000320D01*
X1132100Y-1001700D01*
X1130580Y-1003160D01*
X1127820Y-1006240D01*
X1126580Y-1007880D01*
X1124420Y-1011320D01*
X1123520Y-1013139D01*
X1122720Y-1015000D01*
X1122060Y-1016900D01*
X1121500Y-1018960D01*
X1121100Y-1021060D01*
X1120820Y-1023180D01*
X1120700Y-1025340D01*
X1120720Y-1027520D01*
X1120860Y-1029700D01*
X1121140Y-1031900D01*
X1121540Y-1034080D01*
X1122060Y-1036240D01*
X1122700Y-1038379D01*
X1123460Y-1040500D01*
X1124320Y-1042560D01*
X1125300Y-1044599D01*
X1126380Y-1046560D01*
X1127560Y-1048460D01*
X1128840Y-1050300D01*
X1130200Y-1052060D01*
X1131660Y-1053720D01*
X1134840Y-1056760D01*
X1136540Y-1058100D01*
X1138320Y-1059340D01*
X1140180Y-1060440D01*
X1142080Y-1061400D01*
X1146140Y-1063100D01*
X1150160Y-1064440D01*
X1154100Y-1065440D01*
X1158000Y-1066120D01*
X1161820Y-1066480D01*
X1165540Y-1066560D01*
X1169180Y-1066340D01*
X1172720Y-1065860D01*
X1176160Y-1065120D01*
X1179460Y-1064140D01*
X1182640Y-1062940D01*
X1185680Y-1061520D01*
X1188580Y-1059900D01*
X1191320Y-1058080D01*
X1193900Y-1056100D01*
X1196320Y-1053960D01*
X1198540Y-1051660D01*
X1200560Y-1049240D01*
X1202400Y-1046700D01*
X1204020Y-1044040D01*
X1205420Y-1041300D01*
X1206600Y-1038480D01*
X1207540Y-1035600D01*
X1208220Y-1032660D01*
X1208660Y-1029680D01*
X1208840Y-1026680D01*
X1208740Y-1023660D01*
X1208360Y-1020660D01*
X1207700Y-1017660D01*
X1206720Y-1014700D01*
X1205440Y-1011780D01*
X1203860Y-1008920D01*
X1202940Y-1007500D01*
X1200840Y-1004760D01*
X1198400Y-1002080D01*
X1195620Y-999539D01*
X1192500Y-997099D01*
X1188980Y-994780D01*
X1187100Y-993680D01*
X1185180Y-992700D01*
X1183220Y-991820D01*
X1181200Y-991060D01*
X1179160Y-990400D01*
X1177060Y-989860D01*
X1174940Y-989419D01*
X1170620Y-988860D01*
G37*
G36*
X728780Y-1020500D02*
G01*
X728780Y-1092360D01*
X1061800Y-1092360D01*
X1061760Y-1046340D01*
X1061640Y-1038460D01*
X1061400Y-1032320D01*
X1061040Y-1027760D01*
X1060540Y-1024620D01*
X1060240Y-1023560D01*
X1059880Y-1022800D01*
X1059500Y-1022320D01*
X1059060Y-1022099D01*
X1058580Y-1022140D01*
X1057380Y-1022880D01*
X1035260Y-1038560D01*
X1027700Y-1043560D01*
X1023840Y-1045960D01*
X1015960Y-1050480D01*
X1007880Y-1054660D01*
X999599Y-1058540D01*
X993280Y-1061220D01*
X986880Y-1063720D01*
X978199Y-1066780D01*
X969360Y-1069500D01*
X962680Y-1071340D01*
X955900Y-1072980D01*
X951360Y-1073980D01*
X944520Y-1075320D01*
X937600Y-1076480D01*
X932980Y-1077160D01*
X923680Y-1078260D01*
X919000Y-1078680D01*
X911979Y-1079180D01*
X902580Y-1079540D01*
X893160Y-1079600D01*
X883720Y-1079320D01*
X874300Y-1078720D01*
X864900Y-1077800D01*
X860200Y-1077220D01*
X850860Y-1075800D01*
X841580Y-1074080D01*
X832360Y-1072020D01*
X825520Y-1070260D01*
X820980Y-1069000D01*
X814220Y-1066940D01*
X805300Y-1063920D01*
X796520Y-1060580D01*
X792180Y-1058780D01*
X785740Y-1055940D01*
X777280Y-1051860D01*
X773139Y-1049720D01*
X766979Y-1046320D01*
X762940Y-1043980D01*
X755020Y-1039020D01*
X751120Y-1036420D01*
G37*
M02*
