G04 Layer: TopSolderMaskLayer*
G04 EasyEDA v6.4.19.4, 2021-05-22T17:12:30+02:00*
G04 60ca6d144bf64f37953a992c9f1d910e,8dc9eacff13444d6b60fd3cb587e6cd5,10*
G04 Gerber Generator version 0.2*
G04 Scale: 100 percent, Rotated: No, Reflected: No *
G04 Dimensions in inches *
G04 leading zeros omitted , absolute positions ,3 integer and 6 decimal *
%FSLAX36Y36*%
%MOIN*%

%ADD18C,0.0190*%
%ADD19C,0.0356*%
%ADD20C,0.0356*%

%LPD*%
D18*
X1157637Y-1022640D02*
G01*
X1213542Y-1022640D01*
X1157637Y-1002950D02*
G01*
X1213542Y-1002950D01*
X1157637Y-983270D02*
G01*
X1213542Y-983270D01*
X1157637Y-963580D02*
G01*
X1213542Y-963580D01*
X1157637Y-943899D02*
G01*
X1213542Y-943899D01*
X1157637Y-924209D02*
G01*
X1213542Y-924209D01*
X1157637Y-904529D02*
G01*
X1213542Y-904529D01*
X1157637Y-884839D02*
G01*
X1213542Y-884839D01*
X1157637Y-865160D02*
G01*
X1213542Y-865160D01*
X1157637Y-845470D02*
G01*
X1213542Y-845470D01*
X1157637Y-825790D02*
G01*
X1213542Y-825790D01*
X1157637Y-806100D02*
G01*
X1213542Y-806100D01*
X1157637Y-786419D02*
G01*
X1213542Y-786419D01*
X1157637Y-766729D02*
G01*
X1213542Y-766729D01*
X1157637Y-747049D02*
G01*
X1213542Y-747049D01*
X1157637Y-727359D02*
G01*
X1213542Y-727359D01*
X606457Y-1022640D02*
G01*
X662363Y-1022640D01*
X606457Y-1002950D02*
G01*
X662363Y-1002950D01*
X606457Y-983270D02*
G01*
X662363Y-983270D01*
X606457Y-963580D02*
G01*
X662363Y-963580D01*
X606457Y-943899D02*
G01*
X662363Y-943899D01*
X606457Y-924209D02*
G01*
X662363Y-924209D01*
X606457Y-904529D02*
G01*
X662363Y-904529D01*
X606457Y-884839D02*
G01*
X662363Y-884839D01*
X606457Y-865160D02*
G01*
X662363Y-865160D01*
X606457Y-845470D02*
G01*
X662363Y-845470D01*
X606457Y-825790D02*
G01*
X662363Y-825790D01*
X606457Y-806100D02*
G01*
X662363Y-806100D01*
X606457Y-786419D02*
G01*
X662363Y-786419D01*
X606457Y-766729D02*
G01*
X662363Y-766729D01*
X606457Y-747049D02*
G01*
X662363Y-747049D01*
X606457Y-727359D02*
G01*
X662363Y-727359D01*
D19*
X1250000Y-597442D02*
G01*
X1250000Y-628897D01*
X1200000Y-597442D02*
G01*
X1200000Y-628897D01*
X1150000Y-597442D02*
G01*
X1150000Y-628897D01*
X1100000Y-597442D02*
G01*
X1100000Y-628897D01*
X1050000Y-597442D02*
G01*
X1050000Y-628897D01*
X1000000Y-597442D02*
G01*
X1000000Y-628897D01*
X950000Y-597442D02*
G01*
X950000Y-628897D01*
X900000Y-597442D02*
G01*
X900000Y-628897D01*
X850000Y-597442D02*
G01*
X850000Y-628897D01*
X800000Y-597442D02*
G01*
X800000Y-628897D01*
X750000Y-597442D02*
G01*
X750000Y-628897D01*
X700000Y-597442D02*
G01*
X700000Y-628897D01*
X650000Y-597442D02*
G01*
X650000Y-628897D01*
X600000Y-597442D02*
G01*
X600000Y-628897D01*
X550000Y-597442D02*
G01*
X550000Y-628897D01*
X500000Y-597442D02*
G01*
X500000Y-628897D01*
D20*
X850000Y-1121062D02*
G01*
X850000Y-1152518D01*
X900000Y-1121062D02*
G01*
X900000Y-1152518D01*
X550000Y-1121062D02*
G01*
X550000Y-1152518D01*
X600000Y-1121062D02*
G01*
X600000Y-1152518D01*
X650000Y-1121062D02*
G01*
X650000Y-1152518D01*
X700000Y-1121062D02*
G01*
X700000Y-1152518D01*
X750000Y-1121062D02*
G01*
X750000Y-1152518D01*
X800000Y-1121062D02*
G01*
X800000Y-1152518D01*
X950000Y-1121062D02*
G01*
X950000Y-1152518D01*
X1000000Y-1121062D02*
G01*
X1000000Y-1152518D01*
X1050000Y-1121062D02*
G01*
X1050000Y-1152518D01*
X1100000Y-1121062D02*
G01*
X1100000Y-1152518D01*
X1150000Y-1121062D02*
G01*
X1150000Y-1152518D01*
D19*
X1200000Y-1121062D02*
G01*
X1200000Y-1152518D01*
D20*
X1250000Y-1121062D02*
G01*
X1250000Y-1152518D01*
G36*
X478299Y-795999D02*
G01*
X478299Y-748600D01*
X529600Y-748600D01*
X529600Y-795999D01*
G37*
G36*
X478299Y-733000D02*
G01*
X478299Y-685599D01*
X529600Y-685599D01*
X529600Y-733000D01*
G37*
G36*
X492399Y-1170300D02*
G01*
X482199Y-1160100D01*
X482199Y-1113499D01*
X492399Y-1103200D01*
X507600Y-1103200D01*
X517800Y-1113499D01*
X517800Y-1160100D01*
X507600Y-1170300D01*
G37*
M02*
