M48
INCH,LZ
;FILE_FORMAT=2:4
;TYPE=PLATED
;Layer: Drill PTH
;EasyEDA v6.4.19.4, 2021-05-22T17:12:30+02:00
;60ca6d144bf64f37953a992c9f1d910e,8dc9eacff13444d6b60fd3cb587e6cd5,10
;Gerber Generator version 0.2
;Holesize 1 = 0.0120 inch
T01C0.0120
;Holesize 2 = 0.0240 inch
T02C0.0240
%
G05
G90
T01
X005000Y-010000
X006700Y-006700
X010000Y-008750
X008000Y-008750
X011300Y-006700
X006700Y-010800
X011300Y-010800
X005450Y-009000
X005750Y-008550
X007200Y-008250
X007000Y-009650
X007500Y-010000
X008000Y-010250
X008500Y-010500
X007000Y-007850
X007500Y-007500
X008000Y-007250
X008500Y-007000
X011000Y-009500
X010500Y-009750
X010000Y-010000
X009500Y-010250
X009000Y-010500
X011000Y-008000
X010500Y-007750
X010000Y-007500
X009500Y-007250
X009000Y-007000
T02
X012500Y-006132
X012000Y-006132
X011500Y-006132
X011000Y-006132
X010500Y-006132
X010000Y-006132
X009500Y-006132
X009000Y-006132
X008500Y-006132
X008000Y-006132
X007500Y-006132
X007000Y-006132
X006500Y-006132
X006000Y-006132
X005500Y-006132
X005000Y-006132
X008500Y-011368
X009000Y-011368
X005000Y-011368
X005500Y-011368
X006000Y-011368
X006500Y-011368
X007000Y-011368
X007500Y-011368
X008000Y-011368
X009500Y-011368
X010000Y-011368
X010500Y-011368
X011000Y-011368
X011500Y-011368
X012000Y-011368
X012500Y-011368
M30
